<svg xmlns="http://www.w3.org/2000/svg" width="482" height="374.797" viewBox="0 0 482 374.797"><defs><style>.a{fill:#ef8a3c;}.b{fill:#d37b34;}.c{fill:#abbb00;}.d{fill:#bccf01;}.e,.f,.l,.m{fill:none;stroke-miterlimit:10;}.e,.m{stroke:#ef8a3c;}.e,.f{stroke-width:2.493px;}.f,.l{stroke:#d37b34;}.g{fill:#768e16;}.h{fill:#839d16;}.i{fill:#e5b337;}.j{fill:#8e9c00;}.k{fill:#b9ce0f;}.l{stroke-width:2.069px;}.m{stroke-width:2.059px;}.n{fill:#fec634;}.o{fill:#02b1f4;}.p{fill:#fff;}.q{fill:#9d6b2e;}.r{opacity:0.29;}.s{fill:#f0f4dd;}.t{fill:#e2e1c8;}.u{fill:#b16a33;}.v{fill:#7a7452;}</style></defs><title>CoolNature2</title><rect class="a" x="303.136" y="177.12" width="10.864" height="95.875"/><rect class="b" x="310.167" y="177.12" width="7.031" height="95.875"/><path class="c" d="M364.161,295.408l-15.219-26.36a7.45,7.45,0,0,0,3.681-10.636l-12.745-22.075h2.941a3.78,3.78,0,0,0,3.274-5.67L320.59,186.5a3.78,3.78,0,0,0-6.547,0l-25.5,44.172a3.78,3.78,0,0,0,3.273,5.67h2.415l-12.745,22.075a7.451,7.451,0,0,0,3.913,10.727l-15.166,26.269a7.731,7.731,0,0,0,6.7,11.6h80.538A7.731,7.731,0,0,0,364.161,295.408Z" transform="translate(-7 -72)"/><path class="d" d="M317.167,184.614a3.738,3.738,0,0,0-3.124,1.881l-25.5,44.172a3.78,3.78,0,0,0,3.273,5.67h2.415l-12.745,22.075a7.451,7.451,0,0,0,3.913,10.727l-15.166,26.269a7.731,7.731,0,0,0,6.7,11.6h40.24Z" transform="translate(-7 -72)"/><path class="e" d="M235.534,289.731s-20.873,1.662-25.346-13.712" transform="translate(-7 -72)"/><path class="e" d="M237.2,243.193s-24.638,1.662-29.918-13.712" transform="translate(-7 -72)"/><path class="f" d="M244.978,212.7s39.445,2.246,47.9-18.535" transform="translate(-7 -72)"/><path class="f" d="M247.056,263.805s28.495,2.247,34.6-18.535" transform="translate(-7 -72)"/><rect class="g" x="264.269" y="108.034" width="52.206" height="17.867" rx="8.934"/><rect class="g" x="263.022" y="157.481" width="52.206" height="17.867" rx="8.934"/><rect class="h" x="167.038" y="143.769" width="52.206" height="17.867" rx="8.934"/><rect class="h" x="167.038" y="188.229" width="52.206" height="17.867" rx="8.934"/><rect class="i" x="29.917" y="287.538" width="408.038" height="14.543" rx="7.272"/><rect class="j" x="12.881" y="272.995" width="440.864" height="14.543" rx="7.272"/><rect class="a" x="49.296" y="230.387" width="4.704" height="42.608"/><rect class="b" x="52.421" y="230.387" width="3.125" height="42.608"/><circle class="c" cx="52.563" cy="218.03" r="25.139"/><path class="k" d="M59.421,264.893a25.137,25.137,0,0,0,0,50.274Z" transform="translate(-7 -72)"/><path class="e" d="M57.693,323.8s-29.086,1.663-35.319-13.712" transform="translate(-7 -72)"/><circle class="k" cx="15.328" cy="230.658" r="12.511"/><rect class="a" x="101.386" y="210.667" width="6.614" height="62.328"/><rect class="b" x="105.957" y="210.667" width="4.571" height="62.328"/><circle class="g" cx="106.165" cy="192.592" r="36.773"/><path class="h" d="M112.957,227.822a36.771,36.771,0,0,0,0,73.541Z" transform="translate(-7 -72)"/><rect class="a" x="168.81" y="195.5" width="8.19" height="77.495"/><rect class="b" x="174.493" y="195.5" width="5.683" height="77.495"/><path class="c" d="M219.478,304.914l-12.3-21.306a6.021,6.021,0,0,0,2.974-8.6l-10.3-17.842h2.377a3.056,3.056,0,0,0,2.646-4.584l-20.613-35.7a3.055,3.055,0,0,0-5.292,0l-20.613,35.7A3.056,3.056,0,0,0,161,257.168h1.952l-10.3,17.842a6.024,6.024,0,0,0,3.163,8.672l-12.259,21.232a6.249,6.249,0,0,0,5.412,9.374h65.1A6.249,6.249,0,0,0,219.478,304.914Z" transform="translate(-7 -72)"/><path class="d" d="M181.493,215.361a3.018,3.018,0,0,0-2.525,1.52l-20.613,35.7A3.056,3.056,0,0,0,161,257.168h1.952l-10.3,17.842a6.024,6.024,0,0,0,3.163,8.672l-12.259,21.232a6.249,6.249,0,0,0,5.412,9.374h32.526Z" transform="translate(-7 -72)"/><rect class="a" x="404.249" y="309.632" width="3.751" height="35.363" transform="translate(805.249 582.626) rotate(-180)"/><rect class="b" x="406.842" y="309.632" width="2.593" height="35.363" transform="translate(809.278 582.626) rotate(-180)"/><circle class="k" cx="399.724" cy="227.376" r="20.864"/><path class="c" d="M406.842,278.514a20.863,20.863,0,0,1,0,41.725Z" transform="translate(-7 -72)"/><path class="l" d="M408.276,327.407s24.141,1.379,29.314-11.381" transform="translate(-7 -72)"/><circle class="c" cx="430.628" cy="237.857" r="10.384"/><path class="m" d="M405.066,333.776s-19.848,1.662-24.1-13.712" transform="translate(-7 -72)"/><circle class="k" cx="373.92" cy="239.384" r="12.511"/><rect class="a" x="226.265" y="90.998" width="10.735" height="181.997"/><rect class="b" x="233.296" y="90.998" width="7.031" height="181.997"/><rect class="g" x="194.462" y="75.209" width="77.702" height="26.593" rx="13.297"/><path class="h" d="M240.105,147.209H214.759a13.335,13.335,0,0,0-13.3,13.3h0a13.336,13.336,0,0,0,13.3,13.3h25.346Z" transform="translate(-7 -72)"/><path class="e" d="M234.288,205.8s-31.139,1.662-37.812-13.713" transform="translate(-7 -72)"/><rect class="h" x="151.248" y="103.879" width="52.206" height="17.867" rx="8.934"/><rect class="a" x="342.309" y="201.19" width="7.691" height="71.805"/><rect class="b" x="347.575" y="201.19" width="5.266" height="71.805"/><path class="g" d="M389.771,307.857l-11.4-19.742a5.58,5.58,0,0,0,2.756-7.966l-9.545-16.533h2.2a2.83,2.83,0,0,0,2.451-4.246l-19.1-33.082a2.83,2.83,0,0,0-4.9,0l-19.1,33.082a2.831,2.831,0,0,0,2.452,4.246H337.4l-9.545,16.533a5.581,5.581,0,0,0,2.93,8.035l-11.359,19.673a5.791,5.791,0,0,0,5.015,8.685h60.319A5.791,5.791,0,0,0,389.771,307.857Z" transform="translate(-7 -72)"/><path class="h" d="M354.575,224.879a2.8,2.8,0,0,0-2.34,1.409l-19.1,33.082a2.831,2.831,0,0,0,2.452,4.246H337.4l-9.545,16.533a5.581,5.581,0,0,0,2.93,8.035l-11.359,19.673a5.791,5.791,0,0,0,5.015,8.685h30.138Z" transform="translate(-7 -72)"/><path class="n" d="M36.907,366.6H444.966a7.288,7.288,0,0,1,7.261-7.064H29.646A7.289,7.289,0,0,1,36.907,366.6Z" transform="translate(-7 -72)"/><path class="o" d="M432.7,374.081H48.344a7.289,7.289,0,0,1,7.261,7.064h.013c0,.014,0,.028,0,.042v.331a7.126,7.126,0,0,0,7.1,7.106h48.366a7.294,7.294,0,0,1,7.272,7.272h0a7.293,7.293,0,0,1-7.272,7.271H88.234a7.272,7.272,0,1,0,0,14.543h75.624a7.272,7.272,0,0,1,0,14.543H106.516a7.272,7.272,0,0,0,0,14.544H373.694a7.272,7.272,0,1,0,0-14.544h-59a7.272,7.272,0,0,1,0-14.543H419.4a7.272,7.272,0,0,0,0-14.543H352.087a7.293,7.293,0,0,1-7.272-7.271h0a7.294,7.294,0,0,1,7.272-7.272H418.32a7.127,7.127,0,0,0,7.106-7.106v-.331c0-.014,0-.028,0-.042h.012A7.289,7.289,0,0,1,432.7,374.081Z" transform="translate(-7 -72)"/><path class="o" d="M445.571,406.257a.624.624,0,0,0,0-1.247.624.624,0,0,0,0,1.247Z" transform="translate(-7 -72)"/><path class="p" d="M114.827,140.976H14.272a7.272,7.272,0,1,0,0,14.543H40.034a7.272,7.272,0,0,1,0,14.543H27.568a7.272,7.272,0,0,0,0,14.543H92.389a7.272,7.272,0,0,0,0-14.543H83.247a7.272,7.272,0,0,1,0-14.543h31.58a7.272,7.272,0,0,0,0-14.543Z" transform="translate(-7 -72)"/><path class="p" d="M268.153,72H142.666a7.272,7.272,0,0,0,0,14.543h25.762a7.272,7.272,0,1,1,0,14.543h-20.36a7.272,7.272,0,0,0,0,14.543h64.821a7.272,7.272,0,0,0,0-14.543h-1.247a7.272,7.272,0,0,1,0-14.543h56.511a7.272,7.272,0,0,0,0-14.543Z" transform="translate(-7 -72)"/><path class="p" d="M481.728,167.153H443.5a7.272,7.272,0,1,1,0-14.543h14.958a7.293,7.293,0,0,0,7.272-7.271h0a7.293,7.293,0,0,0-7.272-7.272H416.908a7.272,7.272,0,1,1,0-14.543h16.62a7.272,7.272,0,1,0,0-14.543h-64.82a7.272,7.272,0,1,0,0,14.543H384.5a7.272,7.272,0,1,1,0,14.543h-20.36a7.293,7.293,0,0,0-7.271,7.272h0a7.292,7.292,0,0,0,7.271,7.271h27.424a7.272,7.272,0,1,1,0,14.543h-3.324a7.272,7.272,0,0,0,0,14.544h93.491a7.272,7.272,0,0,0,0-14.544Z" transform="translate(-7 -72)"/><polygon class="q" points="213.576 335.738 208.59 336.153 213.576 333.245 213.576 335.738"/><ellipse class="r" cx="228.95" cy="349.242" rx="14.959" ry="3.532"/><path class="s" d="M250.078,413.14s-3.74,8.726-7.064,9.557-14.959,0-14.959,0c-3.664-1.125-4.938-4.816-2.908-12.05-6.318,1.225-8.56-7.07-2.078-7.895a15.6,15.6,0,0,1,5.817,0c3.149.834,4.271,4.346,2.078,8.31C236.537,409.993,243.15,411.22,250.078,413.14Z" transform="translate(-7 -72)"/><path class="t" d="M240.936,421.866H232.21c-2.165-1.386-6.842-.254-7.479-7.895l.831-5.4c-4.12.75-5.244-1.682-5.864-3.944-1.657,2.636.781,6.927,5.449,6.022-2.03,7.234-.756,10.925,2.908,12.05,0,0,11.635.831,14.959,0,2.034-.509,4.222-3.972,5.615-6.585C246.648,417.717,244.254,420.253,240.936,421.866Z" transform="translate(-7 -72)"/><path class="u" d="M245.091,416.048q-3.829,3.037-12.05,2.909c-6.4,0-6.4-5.817,0-5.817A19.576,19.576,0,0,1,245.091,416.048Z" transform="translate(-7 -72)"/><circle class="v" cx="215.03" cy="333.868" r="1.039"/><polygon class="q" points="275.903 314.547 270.917 314.962 275.903 312.053 275.903 314.547"/><ellipse class="r" cx="291.278" cy="328.051" rx="14.959" ry="3.532"/><path class="s" d="M312.4,391.948s-3.739,8.726-7.064,9.557-14.958,0-14.958,0c-3.665-1.125-4.938-4.815-2.909-12.05-6.317,1.226-8.559-7.07-2.077-7.895a15.62,15.62,0,0,1,5.817,0c3.149.834,4.27,4.347,2.077,8.311C298.864,388.8,305.478,390.028,312.4,391.948Z" transform="translate(-7 -72)"/><path class="t" d="M303.264,400.674h-8.726c-2.165-1.386-6.843-.253-7.479-7.895l.831-5.4c-4.12.75-5.245-1.683-5.864-3.944-1.658,2.636.78,6.927,5.448,6.021-2.029,7.235-.756,10.925,2.909,12.05,0,0,11.634.831,14.958,0,2.035-.508,4.223-3.972,5.616-6.584C308.976,396.526,306.582,399.062,303.264,400.674Z" transform="translate(-7 -72)"/><path class="u" d="M307.419,394.857q-3.831,3.036-12.05,2.909c-6.4,0-6.4-5.818,0-5.818A19.579,19.579,0,0,1,307.419,394.857Z" transform="translate(-7 -72)"/><circle class="v" cx="277.358" cy="312.677" r="1.039"/><polygon class="q" points="155.819 313.716 150.833 314.131 155.819 311.222 155.819 313.716"/><ellipse class="r" cx="171.193" cy="327.22" rx="14.959" ry="3.532"/><path class="s" d="M192.321,391.117s-3.74,8.726-7.064,9.557-14.959,0-14.959,0c-3.664-1.125-4.938-4.815-2.908-12.05-6.318,1.226-8.56-7.07-2.078-7.9a15.621,15.621,0,0,1,5.817,0c3.149.834,4.271,4.347,2.078,8.311C178.78,387.971,185.393,389.2,192.321,391.117Z" transform="translate(-7 -72)"/><path class="t" d="M183.179,399.843h-8.726c-2.165-1.386-6.842-.253-7.479-7.9l.831-5.4c-4.12.75-5.244-1.683-5.864-3.944-1.657,2.636.781,6.927,5.449,6.021-2.03,7.235-.756,10.925,2.908,12.05,0,0,11.635.831,14.959,0,2.034-.508,4.222-3.972,5.616-6.584C188.891,395.7,186.5,398.231,183.179,399.843Z" transform="translate(-7 -72)"/><path class="u" d="M187.334,394.026q-3.829,3.036-12.05,2.908c-6.4,0-6.4-5.817,0-5.817A19.577,19.577,0,0,1,187.334,394.026Z" transform="translate(-7 -72)"/><circle class="v" cx="157.273" cy="311.846" r="1.039"/></svg>